<svg width="14" height="14" viewBox="0 0 14 14" fill="none" xmlns="http://www.w3.org/2000/svg">
<g id="heart (2) 1" clip-path="url(#clip0_1_422)">
<g id="Group">
<path id="Vector" d="M12.8753 2.31566C11.3527 0.793463 8.87572 0.793463 7.35351 2.31566L6.99996 2.66902L6.6466 2.31566C5.1244 0.793257 2.64722 0.793257 1.12502 2.31566C-0.366276 3.80696 -0.37596 6.17082 1.10256 7.81438C2.45107 9.31288 6.4282 12.5503 6.59695 12.6874C6.7115 12.7805 6.84934 12.8258 6.98636 12.8258C6.99089 12.8258 6.99542 12.8258 6.99975 12.8256C7.1415 12.8322 7.28429 12.7836 7.40255 12.6874C7.5713 12.5503 11.5488 9.31288 12.8978 7.81417C14.3761 6.17082 14.3664 3.80696 12.8753 2.31566ZM11.9788 6.98734C10.9274 8.15537 8.03735 10.5644 6.99975 11.4192C5.96215 10.5646 3.07269 8.15578 2.02149 6.98755C0.990065 5.84116 0.980381 4.20852 1.99903 3.18988C2.51927 2.66984 3.20249 2.40962 3.88571 2.40962C4.56893 2.40962 5.25214 2.66963 5.77239 3.18988L6.54956 3.96705C6.64207 4.05956 6.75869 4.11478 6.88107 4.13415C7.07969 4.1768 7.29521 4.12137 7.44973 3.96726L8.22732 3.18988C9.26801 2.1496 10.9608 2.1498 12.0009 3.18988C13.0195 4.20852 13.0098 5.84116 11.9788 6.98734Z" fill="white"/>
</g>
</g>
<defs>
<clipPath id="clip0_1_422">
<rect width="14" height="14" fill="white"/>
</clipPath>
</defs>
</svg>
