<svg width="14" height="14" viewBox="0 0 14 14" fill="none" xmlns="http://www.w3.org/2000/svg">
<g id="ooui:reload">
<path id="Vector" d="M10.955 3.045C10.1052 2.19256 9.00327 1.63664 7.81267 1.45963C6.62206 1.28262 5.40611 1.49395 4.34504 2.06229C3.28397 2.63063 2.43427 3.52574 1.92188 4.61492C1.40949 5.70411 1.26168 6.92941 1.50037 8.1092C1.73905 9.28899 2.35153 10.3605 3.24701 11.1648C4.14248 11.9692 5.2733 12.4636 6.47185 12.5748C7.67039 12.686 8.87287 12.408 9.90104 11.7822C10.9292 11.1563 11.7283 10.2157 12.18 9.1H10.626C10.1933 9.86419 9.53203 10.4735 8.73506 10.8424C7.93809 11.2112 7.04556 11.3209 6.18298 11.1561C5.32041 10.9913 4.53119 10.5603 3.92631 9.92368C3.32142 9.28705 2.93131 8.47682 2.81083 7.60695C2.69035 6.73708 2.84556 5.85133 3.25464 5.07426C3.66372 4.29718 4.30608 3.66788 5.0914 3.27486C5.87671 2.88183 6.76546 2.74484 7.63267 2.88317C8.49988 3.02149 9.30192 3.42816 9.926 4.046L7.7 6.3H12.6V1.4L10.955 3.045Z" fill="white"/>
</g>
</svg>
