<svg width="14" height="14" viewBox="0 0 14 14" fill="none" xmlns="http://www.w3.org/2000/svg">
<g id="heart (2) 1" clip-path="url(#clip0_1_559)">
<g id="Group">
<path id="Vector" d="M12.8753 2.31563C11.3527 0.793433 8.87573 0.793433 7.35353 2.31563L6.99997 2.66899L6.64662 2.31563C5.12442 0.793226 2.64723 0.793226 1.12503 2.31563C-0.366261 3.80693 -0.375945 6.17079 1.10258 7.81435C2.45109 9.31285 6.42822 12.5503 6.59696 12.6873C6.71152 12.7805 6.84936 12.8258 6.98637 12.8258C6.99091 12.8258 6.99544 12.8258 6.99976 12.8256C7.14152 12.8322 7.2843 12.7835 7.40257 12.6873C7.57131 12.5503 11.5489 9.31285 12.8978 7.81414C14.3761 6.17079 14.3664 3.80693 12.8753 2.31563ZM11.9789 6.98731C10.9274 8.15534 8.03737 10.5643 6.99976 11.4192C5.96216 10.5645 3.0727 8.15575 2.0215 6.98752C0.99008 5.84113 0.980396 4.20849 1.99904 3.18985C2.51929 2.66981 3.2025 2.40959 3.88572 2.40959C4.56894 2.40959 5.25216 2.6696 5.7724 3.18985L6.54957 3.96702C6.64208 4.05953 6.7587 4.11475 6.88109 4.13411C7.07971 4.17676 7.29522 4.12134 7.44975 3.96722L8.22733 3.18985C9.26803 2.14957 10.9608 2.14977 12.0009 3.18985C13.0195 4.20849 13.0099 5.84113 11.9789 6.98731Z" fill="white"/>
</g>
</g>
<defs>
<clipPath id="clip0_1_559">
<rect width="14" height="14" fill="white"/>
</clipPath>
</defs>
</svg>
