<svg width="124" height="44" viewBox="0 0 124 44" fill="none" xmlns="http://www.w3.org/2000/svg">
<circle cx="22" cy="22" r="22" fill="url(#paint0_linear_1_40)"/>
<path d="M13.9207 23.3165L22.8348 14.4115L23.8525 15.4302L22.6168 17.5552L15.3837 24.7809L13.9207 23.3165ZM20.0906 29.4927L21.726 17.1983L23.8525 15.4302L22.217 27.7246L20.0906 29.4927ZM20.0906 29.4927L21.2117 27.4822L28.5594 20.142L30.0224 21.6064L21.1083 30.5114L20.0906 29.4927Z" fill="white"/>
<path d="M53.52 29V15H55.12L55.82 17.64V29H53.52ZM63.22 29L54.84 18.06L55.12 15L63.5 25.94L63.22 29ZM63.22 29L62.52 26.54V15H64.82V29H63.22ZM67.8559 29V15H70.1559V29H67.8559ZM69.4359 23V20.9H76.5559V23H69.4359ZM69.4359 17.1V15H76.8959V17.1H69.4359ZM82.2548 29V15.4H84.5548V29H82.2548ZM77.6948 17.1V15H89.1148V17.1H77.6948ZM91.1177 29V15H93.4177V29H91.1177ZM102.81 29.2C101.796 29.2 100.856 29.02 99.9897 28.66C99.1364 28.2867 98.3897 27.7733 97.7497 27.12C97.1097 26.4533 96.6164 25.6867 96.2697 24.82C95.923 23.94 95.7497 23 95.7497 22C95.7497 21 95.923 20.0667 96.2697 19.2C96.6164 18.32 97.1097 17.5533 97.7497 16.9C98.3897 16.2467 99.1364 15.7333 99.9897 15.36C100.856 14.9867 101.796 14.8 102.81 14.8C103.943 14.8 104.923 14.9867 105.75 15.36C106.576 15.7333 107.31 16.24 107.95 16.88L106.39 18.44C105.976 17.9867 105.47 17.6333 104.87 17.38C104.283 17.1267 103.596 17 102.81 17C102.116 17 101.483 17.12 100.91 17.36C100.336 17.6 99.8364 17.9467 99.4097 18.4C98.9964 18.84 98.6764 19.3667 98.4497 19.98C98.223 20.5933 98.1097 21.2667 98.1097 22C98.1097 22.7333 98.223 23.4067 98.4497 24.02C98.6764 24.6333 98.9964 25.1667 99.4097 25.62C99.8364 26.06 100.336 26.4 100.91 26.64C101.483 26.88 102.116 27 102.81 27C103.663 27 104.383 26.8733 104.97 26.62C105.57 26.3533 106.076 25.9933 106.49 25.54L108.05 27.1C107.41 27.7533 106.656 28.2667 105.79 28.64C104.923 29.0133 103.93 29.2 102.81 29.2ZM115.976 29.2C114.976 29.2 114.042 29.0133 113.176 28.64C112.309 28.2667 111.549 27.7533 110.896 27.1C110.242 26.4333 109.729 25.6667 109.356 24.8C108.996 23.92 108.816 22.98 108.816 21.98C108.816 20.98 108.996 20.0467 109.356 19.18C109.729 18.3133 110.236 17.5533 110.876 16.9C111.529 16.2333 112.282 15.72 113.136 15.36C114.002 14.9867 114.936 14.8 115.936 14.8C116.936 14.8 117.862 14.9867 118.716 15.36C119.582 15.72 120.342 16.2333 120.996 16.9C121.649 17.5533 122.156 18.32 122.516 19.2C122.889 20.0667 123.076 21 123.076 22C123.076 23 122.889 23.94 122.516 24.82C122.156 25.6867 121.649 26.4467 120.996 27.1C120.356 27.7533 119.602 28.2667 118.736 28.64C117.882 29.0133 116.962 29.2 115.976 29.2ZM115.936 27C116.882 27 117.709 26.7867 118.416 26.36C119.136 25.9333 119.696 25.3467 120.096 24.6C120.509 23.84 120.716 22.9667 120.716 21.98C120.716 21.2467 120.596 20.58 120.356 19.98C120.129 19.3667 119.802 18.84 119.376 18.4C118.949 17.9467 118.442 17.6 117.856 17.36C117.282 17.12 116.642 17 115.936 17C115.002 17 114.176 17.2133 113.456 17.64C112.749 18.0533 112.189 18.6333 111.776 19.38C111.376 20.1267 111.176 20.9933 111.176 21.98C111.176 22.7133 111.289 23.3933 111.516 24.02C111.756 24.6333 112.082 25.16 112.496 25.6C112.922 26.04 113.429 26.3867 114.016 26.64C114.602 26.88 115.242 27 115.936 27Z" fill="white"/>
<defs>
<linearGradient id="paint0_linear_1_40" x1="-1.79259" y1="40.4833" x2="40.828" y2="40.1991" gradientUnits="userSpaceOnUse">
<stop offset="0.115154" stop-color="#0500FA"/>
<stop offset="1" stop-color="#E01E5A"/>
</linearGradient>
</defs>
</svg>
